<svg xmlns="http://www.w3.org/2000/svg" width="46" height="42" viewBox="0 0 46 42">
  <path id="downloads_folder" d="M5,4A3,3,0,0,0,2,7v6H48V11a3,3,0,0,0-3-3l-26.955.006a5.6,5.6,0,0,1-1.166-1.514C16.112,5.268,15.317,4,14,4ZM3,15a1,1,0,0,0-1,1V43a3,3,0,0,0,3,3H45a3,3,0,0,0,3-3V16a1,1,0,0,0-1-1Zm22,4a1,1,0,0,1,1,1V32.586l3.293-3.293a1,1,0,0,1,1.414,1.414l-5,5a1,1,0,0,1-1.414,0l-5-5a1,1,0,0,1,1.414-1.414L24,32.586V20A1,1,0,0,1,25,19ZM15,38H35a1,1,0,0,1,0,2H15a1,1,0,0,1,0-2Z" transform="translate(-2 -4)" fill="#fff"/>
</svg>
