<svg xmlns="http://www.w3.org/2000/svg" width="24.748" height="22" viewBox="0 0 24.748 22">
  <path id="Icon_awesome-file-export" data-name="Icon awesome-file-export" d="M16.5,5.238a1.028,1.028,0,0,0-.3-.726L11.993.3a1.03,1.03,0,0,0-.73-.3H11V5.5h5.5Zm8.035,8L20.423,9.092a.689.689,0,0,0-1.177.486v2.8H16.5v2.75h2.75v2.8a.689.689,0,0,0,1.177.486l4.112-4.146A.731.731,0,0,0,24.535,13.234ZM8.25,14.438V13.063a.69.69,0,0,1,.688-.687H16.5v-5.5H10.656A1.034,1.034,0,0,1,9.625,5.844V0H1.031A1.029,1.029,0,0,0,0,1.031V20.969A1.029,1.029,0,0,0,1.031,22H15.469A1.029,1.029,0,0,0,16.5,20.969V15.125H8.938A.69.69,0,0,1,8.25,14.438Z" fill="#fff"/>
</svg>
