<svg xmlns="http://www.w3.org/2000/svg" width="24.078" height="24.078"><path data-name="legal conditions" d="M.573 0A.573.573 0 000 .573v18.345a.573.573 0 00.573.573h5.16v-4.012h-1.72a.574.574 0 110-1.147h1.72v-2.293h-1.72a.574.574 0 110-1.147h1.72V8.6h-1.72a.574.574 0 110-1.147h1.72V5.16h-1.72a.574.574 0 110-1.147h1.825a1.715 1.715 0 011.615-1.147H17.2V.573A.573.573 0 0016.625 0zm6.879 4.013a.573.573 0 00-.573.573V23.5a.573.573 0 00.573.573H23.5a.573.573 0 00.573-.573V4.586a.573.573 0 00-.573-.573zm3.44 4.586h9.746a.574.574 0 110 1.147h-9.746a.574.574 0 010-1.147zm0 3.44h6.879a.574.574 0 010 1.147h-6.879a.574.574 0 110-1.147zm0 3.44h9.746a.574.574 0 110 1.147h-9.746a.574.574 0 110-1.147zm0 3.44h6.879a.574.574 0 010 1.147h-6.879a.574.574 0 110-1.147z" fill="#fff"/></svg>