<svg xmlns="http://www.w3.org/2000/svg" width="26.135" height="19.601"><path data-name="Shipping profile" d="M25.522 5.717h-3.056l-.849-2.123A5.688 5.688 0 0016.309 0H9.826a5.69 5.69 0 00-5.308 3.594l-.849 2.123H.613a.612.612 0 00-.594.761L.325 7.7a.612.612 0 00.594.464h1.025a3.244 3.244 0 00-1.127 2.45v2.45a3.24 3.24 0 00.817 2.14v2.76A1.634 1.634 0 003.267 19.6H4.9a1.634 1.634 0 001.633-1.633v-1.632H19.6v1.633a1.634 1.634 0 001.635 1.632h1.633a1.634 1.634 0 001.632-1.632v-2.76a3.238 3.238 0 00.817-2.14v-2.45a3.245 3.245 0 00-1.127-2.45h1.024a.612.612 0 00.594-.464l.306-1.225a.613.613 0 00-.595-.761zm-17.971-.91a2.45 2.45 0 012.275-1.54h6.483a2.45 2.45 0 012.275 1.54L19.6 7.351H6.534l1.017-2.544zM4.9 13.057a1.541 1.541 0 01-1.633-1.628A1.541 1.541 0 014.9 9.8a3.143 3.143 0 012.45 2.443c.001.977-1.469.814-2.45.814zm16.335 0c-.98 0-2.45.163-2.45-.814a3.143 3.143 0 012.45-2.443 1.541 1.541 0 011.633 1.628 1.541 1.541 0 01-1.633 1.629z" fill="#fff"/></svg>