<svg xmlns="http://www.w3.org/2000/svg" width="24.939" height="20.601"><path d="M1.543 0A1.544 1.544 0 000 1.543v4.963h24.939V1.543A1.544 1.544 0 0023.4 0zm1.71 2.169a1.084 1.084 0 11-1.084 1.084 1.084 1.084 0 011.084-1.084zm3.253 0a1.084 1.084 0 11-1.085 1.084 1.084 1.084 0 011.085-1.084zm2.711 0h13.011v2.169H9.216zM0 7.59v12.469a.542.542 0 00.542.542H24.4a.542.542 0 00.542-.542V7.59zm6.49 2.169a.859.859 0 01.785.31.939.939 0 01.816.841 2.451 2.451 0 01.041.475 3.048 3.048 0 01-.131.873.369.369 0 01.131.364c-.045.39-.2.489-.3.5a1.487 1.487 0 01-.5.863c0 .26-.009.458.016.742.3.832 2.316.6 2.409 2.2v.421H3.253v-.421c.093-1.6 2.117-1.371 2.417-2.2.025-.285.016-.483.016-.742a1.489 1.489 0 01-.508-.863c-.1-.009-.252-.107-.3-.5a.369.369 0 01.131-.364 3.556 3.556 0 01-.132-.873 2.26 2.26 0 01.051-.474A1.432 1.432 0 016.49 9.759zm6.522 1.084h8.674v1.084h-8.675zm0 2.711h8.674v1.084h-8.675zm0 2.711h7.048v1.084h-7.049z" fill="#fff"/></svg>