<svg xmlns="http://www.w3.org/2000/svg" width="101.001" height="112.883" viewBox="0 0 101.001 112.883">
  <g id="icons8_add_list" transform="translate(-6 -2)">
    <path id="Path_7313" data-name="Path 7313" d="M6.5,106.471V2.5H60.841L86.706,28.365v78.106Z" transform="translate(0.985 0.985)" fill="#fff"/>
    <path id="Path_7314" data-name="Path 7314" d="M61.212,4.971,86.206,29.965v76.006H8.971v-101H61.212M62.442,2H6V108.942H89.177V28.735L62.442,2Z" transform="translate(0)" fill="#145887"/>
    <path id="Path_7315" data-name="Path 7315" d="M24.5,29.235V2.5h.87L51.235,28.365v.87Z" transform="translate(36.456 0.985)" fill="#d8e0e6"/>
    <path id="Path_7316" data-name="Path 7316" d="M26.971,6.2,49.506,28.735H26.971V6.2m0-4.2H24V31.706H53.706V28.735L26.971,2Z" transform="translate(35.471)" fill="#145887"/>
    <path id="Path_7317" data-name="Path 7317" d="M21,19H59.618V75.442H21Z" transform="translate(29.559 33.5)" fill="#fff"/>
    <path id="Path_7318" data-name="Path 7318" d="M69.956,21.941h0a1.49,1.49,0,0,1,1.485,1.485V26.4a1.49,1.49,0,0,1-1.485,1.485h0A1.49,1.49,0,0,1,68.471,26.4V23.427A1.49,1.49,0,0,1,69.956,21.941ZM31.338,81.353h2.971a1.49,1.49,0,0,0,1.485-1.485h0a1.49,1.49,0,0,0-1.485-1.485H31.338a1.49,1.49,0,0,0-1.485,1.485h0A1.49,1.49,0,0,0,31.338,81.353ZM52.133,18.971H16.485A1.486,1.486,0,0,1,15,17.485h0A1.486,1.486,0,0,1,16.485,16H52.133a1.486,1.486,0,0,1,1.485,1.485h0A1.486,1.486,0,0,1,52.133,18.971ZM40.25,27.882H16.485A1.486,1.486,0,0,1,15,26.4h0a1.486,1.486,0,0,1,1.485-1.485H40.25A1.486,1.486,0,0,1,41.735,26.4h0A1.486,1.486,0,0,1,40.25,27.882Zm11.882,8.912H16.485A1.486,1.486,0,0,1,15,35.309h0a1.486,1.486,0,0,1,1.485-1.485H52.133a1.486,1.486,0,0,1,1.485,1.485h0A1.486,1.486,0,0,1,52.133,36.794Zm0,17.824H16.485A1.486,1.486,0,0,1,15,53.133h0a1.486,1.486,0,0,1,1.485-1.485H52.133a1.486,1.486,0,0,1,1.485,1.485h0A1.486,1.486,0,0,1,52.133,54.618ZM40.25,45.706H16.485A1.486,1.486,0,0,1,15,44.221h0a1.486,1.486,0,0,1,1.485-1.485H40.25a1.486,1.486,0,0,1,1.485,1.485h0A1.486,1.486,0,0,1,40.25,45.706Z" transform="translate(17.735 27.589)" fill="#145887"/>
    <path id="Path_7319" data-name="Path 7319" d="M42.393,24.971V22H35.3a31.3,31.3,0,0,0-4.171,2.971Zm0,17.824V39.824H21.424q-.432,1.457-.728,2.971ZM30.511,33.882V30.912H25.728a30.881,30.881,0,0,0-1.857,2.971Z" transform="translate(28.96 39.412)" fill="#fff"/>
    <path id="Path_7320" data-name="Path 7320" d="M47.75,73A25.25,25.25,0,1,1,73,47.75,25.278,25.278,0,0,1,47.75,73Z" transform="translate(32.515 40.397)" fill="#d8e0e6"/>
    <path id="Path_7321" data-name="Path 7321" d="M48.735,24.971A23.765,23.765,0,1,1,24.971,48.735,23.793,23.793,0,0,1,48.735,24.971m0-2.971A26.735,26.735,0,1,0,75.471,48.735,26.734,26.734,0,0,0,48.735,22Z" transform="translate(31.53 39.412)" fill="#145887"/>
    <path id="Path_7322" data-name="Path 7322" d="M40.853,55.706V26M26,40.853H55.706" transform="translate(39.412 47.295)" fill="#145887" stroke="#124f79" stroke-width="3"/>
    <g id="Group_2666" data-name="Group 2666" transform="translate(23.081 42.846)">
      <path id="Path_7323" data-name="Path 7323" d="M13.978,15.75a2.228,2.228,0,1,0,2.228,2.228A2.228,2.228,0,0,0,13.978,15.75Z" transform="translate(-11.75 -15.75)" fill="#145887"/>
    </g>
    <g id="Group_2667" data-name="Group 2667" transform="translate(23.081 51.758)">
      <path id="Path_7324" data-name="Path 7324" d="M13.978,18.75a2.228,2.228,0,1,0,2.228,2.228A2.228,2.228,0,0,0,13.978,18.75Z" transform="translate(-11.75 -18.75)" fill="#145887"/>
    </g>
    <g id="Group_2668" data-name="Group 2668" transform="translate(23.081 60.67)">
      <path id="Path_7325" data-name="Path 7325" d="M13.978,21.75a2.228,2.228,0,1,0,2.228,2.228A2.228,2.228,0,0,0,13.978,21.75Z" transform="translate(-11.75 -21.75)" fill="#145887"/>
    </g>
    <g id="Group_2669" data-name="Group 2669" transform="translate(23.081 69.581)">
      <path id="Path_7326" data-name="Path 7326" d="M13.978,24.75a2.228,2.228,0,1,0,2.228,2.228A2.228,2.228,0,0,0,13.978,24.75Z" transform="translate(-11.75 -24.75)" fill="#145887"/>
    </g>
    <g id="Group_2670" data-name="Group 2670" transform="translate(23.081 78.493)">
      <path id="Path_7327" data-name="Path 7327" d="M13.978,27.75a2.228,2.228,0,1,0,2.228,2.228A2.228,2.228,0,0,0,13.978,27.75Z" transform="translate(-11.75 -27.75)" fill="#145887"/>
    </g>
  </g>
</svg>
